<?xml version="1.0" encoding="UTF-8"?><svg id="Layer_1" xmlns="http://www.w3.org/2000/svg" xmlns:xlink="http://www.w3.org/1999/xlink" viewBox="0 0 719.8 85.6"><defs><style>.cls-1{fill:#3a5faa;}.cls-2{fill:#049669;}.cls-3{fill:url(#linear-gradient);}</style><linearGradient id="linear-gradient" x1="22.33" y1="40.88" x2="89.66" y2="89.22" gradientUnits="userSpaceOnUse"><stop offset=".17" stop-color="#049669"/><stop offset=".33" stop-color="#0f8a76"/><stop offset=".64" stop-color="#2c6c99"/><stop offset=".77" stop-color="#3a5faa"/></linearGradient></defs><path class="cls-3" d="M96.9,85.6H1.14c-.88,0-1.43-.95-.99-1.71L39.37,15.94c.44-.76,1.53-.76,1.97,0l30.85,53.11c.44.76-.11,1.71-.99,1.71H26.84c-.88,0-1.43-.95-.99-1.71l15.54-26.9c.13-.23.46-.23.59,0l4.28,7.2v.35s-7.26,12.56-7.26,12.56c-.14.24.03.53.31.53h19.41c.27,0,.44-.29.31-.53l-17.93-30.89c-.3-.52-1.06-.52-1.36,0l-26.03,45.07c-.3.52.08,1.18.68,1.18h69.28c.6,0,.98-.65.68-1.18L44.97,8.27c-.36-.62-.36-1.38,0-1.99l3.42-5.92c.27-.48.96-.48,1.23,0l48.26,83.53c.44.76-.11,1.71-.99,1.71Z"/><path class="cls-2" d="M124.18,66.98l6.53-.45c2.29-.12,3.98-.79,5.07-2.02,1.09-1.23,1.63-3.07,1.63-5.53V13.93h13.5v44.87c0,11.93-5.99,18.25-17.97,18.97l-7.99.45-.77-11.24Z"/><path class="cls-2" d="M178.29,74.13c-4.44-2.67-7.87-6.44-10.27-11.33-2.41-4.88-3.61-10.62-3.61-17.22s1.2-12.33,3.61-17.22c2.41-4.88,5.83-8.65,10.27-11.28,4.44-2.64,9.67-3.96,15.69-3.96s11.25,1.32,15.69,3.96c4.44,2.64,7.87,6.4,10.27,11.28,2.41,4.89,3.61,10.62,3.61,17.22s-1.2,12.33-3.61,17.22c-2.41,4.89-5.83,8.66-10.27,11.33-4.44,2.67-9.67,4-15.69,4s-11.25-1.33-15.69-4ZM205.89,61.67c2.89-3.72,4.34-9.08,4.34-16.09s-1.43-12.36-4.3-16.05c-2.87-3.69-6.85-5.53-11.95-5.53s-9.07,1.84-11.91,5.53c-2.84,3.69-4.26,9.04-4.26,16.05s1.43,12.38,4.3,16.09c2.86,3.72,6.82,5.57,11.86,5.57s9.01-1.86,11.91-5.57Z"/><path class="cls-2" d="M284.03,50.12c1.92,2.67,2.88,5.95,2.88,9.85,0,5.34-1.88,9.56-5.63,12.68-3.75,3.12-8.93,4.68-15.52,4.68h-28.8V13.93h27.94c6.3,0,11.3,1.47,15,4.41,3.7,2.94,5.54,6.95,5.54,12.05,0,3.3-.85,6.19-2.54,8.68-1.69,2.49-4.03,4.3-7.01,5.44,3.49,1.08,6.2,2.95,8.12,5.62ZM250.03,39.73h12.64c3.44,0,5.97-.61,7.61-1.84,1.63-1.23,2.45-3.1,2.45-5.62s-.82-4.57-2.45-5.8c-1.63-1.23-4.17-1.84-7.61-1.84h-12.64v15.11ZM271.95,64.73c1.6-1.26,2.41-3.3,2.41-6.11s-.8-4.88-2.41-6.2c-1.61-1.32-4.18-1.98-7.74-1.98h-14.18v16.18h14.18c3.55,0,6.13-.63,7.74-1.89Z"/><path class="cls-1" d="M307.36,76.19c-4.24-1.29-7.77-3.07-10.57-5.35l4.3-9.98c5.85,4.26,12.41,6.38,19.69,6.38,3.78,0,6.69-.64,8.73-1.93,2.03-1.29,3.05-3.07,3.05-5.35,0-2.04-.93-3.63-2.79-4.77-1.86-1.14-5.17-2.25-9.93-3.33-5.33-1.14-9.58-2.52-12.77-4.14-3.18-1.62-5.5-3.61-6.96-5.98-1.46-2.37-2.19-5.29-2.19-8.77,0-3.84,1.02-7.25,3.05-10.25,2.03-3,4.89-5.35,8.55-7.06,3.67-1.71,7.91-2.56,12.72-2.56,4.3,0,8.44.66,12.42,1.98,3.98,1.32,7.15,3.09,9.5,5.3l-4.3,9.98c-5.56-4.26-11.4-6.38-17.54-6.38-3.5,0-6.25.71-8.25,2.11-2.01,1.41-3.01,3.34-3.01,5.8,0,1.44.39,2.62,1.16,3.55.77.93,2.06,1.75,3.87,2.47s4.37,1.47,7.69,2.25c7.79,1.8,13.4,4.11,16.81,6.92,3.41,2.82,5.11,6.71,5.11,11.69,0,6-2.21,10.72-6.62,14.16-4.41,3.45-10.57,5.17-18.48,5.17-4.59,0-9-.64-13.24-1.93Z"/><path class="cls-1" d="M412.75,13.93v63.39h-13.15v-26.61h-27.94v26.61h-13.15V13.93h13.15v25.63h27.94V13.93h13.15Z"/><path class="cls-1" d="M468.45,63.29h-28.2l-5.76,14.03h-13.5l27.85-63.39h10.75l27.85,63.39h-13.24l-5.76-14.03ZM464.07,52.68l-9.71-23.74-9.71,23.74h19.43Z"/><path class="cls-1" d="M495.7,13.93h27.85c6.59,0,11.72,1.74,15.39,5.21,3.67,3.48,5.5,8.33,5.5,14.57s-1.83,11.09-5.5,14.57c-3.67,3.48-8.8,5.21-15.39,5.21h-14.44v23.83h-13.41V13.93ZM521.83,42.88c6.71,0,10.06-3.03,10.06-9.08,0-3.12-.83-5.42-2.49-6.92-1.66-1.5-4.18-2.25-7.56-2.25h-12.72v18.25h12.72Z"/><path class="cls-1" d="M556.31,13.93h41.78v10.88h-28.71v14.84h26.99v10.88h-26.99v15.92h28.71v10.88h-41.78V13.93Z"/><path class="cls-1" d="M663.07,77.32h-14.61l-10.49-20.23c-.86-1.56-1.89-2.68-3.09-3.37-1.2-.69-2.72-1.03-4.56-1.03h-6.62v24.64h-13.24V13.93h27.85c7.1,0,12.48,1.63,16.12,4.9,3.64,3.27,5.46,7.99,5.46,14.16,0,4.8-1.28,8.81-3.83,12.05-2.55,3.24-6.15,5.37-10.79,6.38,3.15.84,5.82,3.21,7.99,7.1l9.8,18.79ZM644.67,39.96c1.72-1.41,2.58-3.61,2.58-6.61s-.86-5.27-2.58-6.65c-1.72-1.38-4.5-2.07-8.34-2.07h-12.81v17.44h12.81c3.84,0,6.62-.7,8.34-2.11Z"/><path class="cls-1" d="M681.46,76.19c-4.24-1.29-7.77-3.07-10.57-5.35l4.3-9.98c5.85,4.26,12.41,6.38,19.69,6.38,3.78,0,6.69-.64,8.72-1.93,2.03-1.29,3.05-3.07,3.05-5.35,0-2.04-.93-3.63-2.79-4.77-1.86-1.14-5.17-2.25-9.93-3.33-5.33-1.14-9.58-2.52-12.77-4.14-3.18-1.62-5.5-3.61-6.96-5.98-1.46-2.37-2.19-5.29-2.19-8.77,0-3.84,1.02-7.25,3.05-10.25,2.03-3,4.88-5.35,8.55-7.06,3.67-1.71,7.91-2.56,12.72-2.56,4.3,0,8.44.66,12.42,1.98,3.98,1.32,7.15,3.09,9.5,5.3l-4.3,9.98c-5.56-4.26-11.4-6.38-17.54-6.38-3.5,0-6.25.71-8.25,2.11-2.01,1.41-3.01,3.34-3.01,5.8,0,1.44.39,2.62,1.16,3.55.77.93,2.06,1.75,3.87,2.47,1.8.72,4.37,1.47,7.69,2.25,7.79,1.8,13.39,4.11,16.81,6.92,3.41,2.82,5.11,6.71,5.11,11.69,0,6-2.21,10.72-6.62,14.16-4.41,3.45-10.57,5.17-18.48,5.17-4.59,0-9-.64-13.24-1.93Z"/></svg>